# xmcd CD database file
#
# Track frame offsets:
#	150
#	24243
#	50887
#	66667
#	88826
#	109699
#	138271
#	166043
#	187237
#	211218
#	236003
#	252477
#	277817
#	305625
#
# Disc length: 4386 seconds
#
# Revision: 1
# Processed by: cddbd v1.4PL0 Copyright (c) Steve Scherf et al.
# Submitted via: CDex 1.40Beta9
#
DISCID=ce11200e
DTITLE=Good Whiskey Blues - From The State Of New Jersey (vol. 5)
DYEAR=1900
DGENRE=Blues
TTITLE0=Rhett Tyler and Early Warning - Walk Dat Walk
TTITLE1=Sonny Kenn Band - Fade To Black
TTITLE2=Johnny Charles - You Move Me
TTITLE3=John Bloys and The Boogie Stew - I'm Free
TTITLE4=John Bushnell - Kitchen Blues
TTITLE5=Nasty Ned and The Famous Chili Dogs - Just Like Life
TTITLE6=Mike Dugan and The Blues Mission - Blue Eternity
TTITLE7=John Bushnell - One Night Ain't Enough
TTITLE8=Rhett Tyler and Early Warning - Sam
TTITLE9=Sonny Kenn Band - Homicide Blues
TTITLE10=Johnny Charles - Texas Blues
TTITLE11=Zero - Devil's Dick Blues
TTITLE12=Chris Cobb Band - Bad Brain
TTITLE13=David Denny - Without You
EXTD=ID3G: 0
EXTT0=
EXTT1=
EXTT2=
EXTT3=
EXTT4=
EXTT5=
EXTT6=
EXTT7=
EXTT8=
EXTT9=
EXTT10=
EXTT11=
EXTT12=
EXTT13=
PLAYORDER=
